SplineFontDB: 3.0
FontName: Sebastian-Lines
FullName: Sebastian-Lines
FamilyName: Sebastian
Weight: Regular

StartChar: parenleft
Encoding: 40 40 2
Width: 980
Flags: W
HStem: -13 25<0 980> 237 25<0 980> 487 25<0 980> 737 25<0 980> 987 25<0 980>
LayerCount: 2
Fore
SplineSet
0 987 m 0
 0 1012 l 0
 980 1012 l 0
 980 987 l 0
 0 987 l 0
0 737 m 0
 0 762 l 0
 980 762 l 0
 980 737 l 0
 0 737 l 0
0 487 m 0
 0 512 l 0
 980 512 l 0
 980 487 l 0
 0 487 l 0
0 237 m 0
 0 262 l 0
 980 262 l 0
 980 237 l 0
 0 237 l 0
0 -13 m 0
 0 12 l 0
 980 12 l 0
 980 -13 l 0
 0 -13 l 0
EndSplineSet
EndChar

StartChar: parenright
Encoding: 41 41 3
Width: 980
Flags: W
HStem: -13 26<0 980> 237 26<0 980> 487 26<0 980> 737 26<0 980> 987 26<0 980>
LayerCount: 2
Fore
SplineSet
0 987 m 0
 0 1013 l 0
 980 1013 l 0
 980 987 l 0
 0 987 l 0
0 737 m 0
 0 763 l 0
 980 763 l 0
 980 737 l 0
 0 737 l 0
0 487 m 0
 0 513 l 0
 980 513 l 0
 980 487 l 0
 0 487 l 0
0 237 m 0
 0 263 l 0
 980 263 l 0
 980 237 l 0
 0 237 l 0
0 -13 m 0
 0 13 l 0
 980 13 l 0
 980 -13 l 0
 0 -13 l 0
EndSplineSet
EndChar

StartChar: asteriskmath
Encoding: 42 8727 4
Width: 1000
Flags: H
LayerCount: 2
Back
SplineSet
227 -768 m 4
 234 -739 267 -655 267 -534 c 4
 267 -424 206 -338 149 -290 c 4
 129 -272 80 -240 56 -240 c 4
 24 -240 24 -281 24 -330 c 4
 0 -330 l 4
 0 19 l 4
 0 55 1 60 13 60 c 4
 30 60 29 34 33 13 c 4
 41 -37 73 -113 134 -181 c 4
 213 -269 300 -374 300 -539 c 4
 300 -623 273 -737 249 -777 c 4
 238 -795 220 -797 227 -768 c 4
EndSplineSet
EndChar

StartChar: zero
Encoding: 48 48 5
Width: 248
Flags: HW
LayerCount: 2
Fore
SplineSet
62 50 m 0
 62 33 74 23 89 23 c 0
 137 23 186 172 186 208 c 0
 186 223 180 237 157 237 c 0
 107 237 62 92 62 50 c 0
158 263 m 0
 202 263 233 225 233 181 c 0
 233 110 177 -3 93 -3 c 0
 39 -3 15 37 15 79 c 0
 15 157 81 263 158 263 c 0
EndSplineSet
EndChar

StartChar: one
Encoding: 49 49 6
Width: 208
Flags: W
HStem: 0 27<21.2276 29.679 50.679 77.5274 128.555 143.679 163.679 175.452>
LayerCount: 2
Fore
SplineSet
163.679 0 m 0
 170.679 0 171.679 1 175.679 14 c 0
 177.679 24 177.679 27 167.679 27 c 0
 143.679 27 l 0
 121.679 27 124.679 36 129.679 52 c 0
 192.679 253 l 0
 193.679 257 193.679 262 189.679 262 c 0
 154.679 262 l 0
 150.679 262 148.679 260 143.679 255 c 0
 40.679 139 l 0
 34.679 133 32.679 130 40.679 123 c 0
 46.679 118 50.679 116 54.679 120 c 0
 101.679 165 l 0
 114.679 177 120.679 171 115.679 156 c 0
 86.679 65 l 0
 79.679 42 76.679 27 50.679 27 c 0
 29.679 27 l 0
 24.679 27 21.679 25 17.679 14 c 0
 12.679 1 14.679 0 23.679 0 c 0
 163.679 0 l 0
EndSplineSet
EndChar

StartChar: two
Encoding: 50 50 7
Width: 256
Flags: W
HStem: 16 20G<57 79.5> 47 21G<141.5 161> 237 26<109.9 176.447>
VStem: 15 25<-2.97485 30.6219> 58 57<170.041 235.949> 184 57<154.092 234.07> 198 24<57.0629 81.8601>
LayerCount: 2
Fore
SplineSet
198 72 m 0xfa
 186 50 170 47 152 47 c 0
 131 47 106 57 90 63 c 0
 79 67 80 75 88 81 c 0
 108 97 139 106 166 115 c 0
 196 125 241 148 241 194 c 0
 241 238 197 263 150 263 c 0
 104 263 58 237 58 199 c 0
 58 184 68 169 85 169 c 0
 101 169 115 180 115 198 c 0
 115 210 109 216 109 221 c 0
 109 230 121 237 146 237 c 0
 169 237 184 224 184 203 c 0xfc
 184 159 150 142 114 125 c 0
 57 99 15 54 15 10 c 0
 15 2 16 -3 26 -3 c 0
 37 -3 38 -1 40 10 c 0
 43 23 48 36 66 36 c 0
 93 36 106 -3 144 -3 c 0
 192 -3 211 37 222 72 c 0
 223 77 222 79 213 82 c 0
 205 84 203 84 198 72 c 0xfa
EndSplineSet
EndChar

StartChar: three
Encoding: 51 51 8
Width: 252
Flags: W
HStem: -3 21G<77.5 126> 72 20G<39 55> 119 25<96.4854 143.915> 238 25<118.835 177.169>
VStem: 15 53<23.4187 76.0843> 67 51<178.311 237.215> 149 53<34.2004 117.95> 183 54<155.471 236.353>
LayerCount: 2
Fore
SplineSet
97 23 m 0xfa
 128 23 149 50 149 86 c 0xfa
 149 107 139 119 117 119 c 0
 104 119 l 0
 98 119 94 121 96 130 c 0
 99 142 101 144 110 144 c 0
 120 144 l 0
 147 144 162 150 174 171 c 0
 178 179 183 193 183 206 c 0
 183 223 174 238 150 238 c 0
 128 238 118 233 118 223 c 0
 118 217 122 214 122 205 c 0
 122 190 111 178 93 178 c 0
 78 178 67 190 67 207 c 0
 67 238 106 263 157 263 c 0
 191 263 237 246 237 203 c 0xf5
 237 175 222 150 188 138 c 0
 174 133 176 124 185 115 c 0
 193 107 202 92 202 72 c 0
 202 24 151 -3 101 -3 c 0
 54 -3 15 20 15 55 c 0
 15 76 30 92 48 92 c 0
 62 92 76 83 76 63 c 0
 76 49 68 44 68 36 c 0
 68 28 76 23 97 23 c 0xfa
EndSplineSet
EndChar

StartChar: four
Encoding: 52 52 9
Width: 267
Flags: W
HStem: 0 27<60.1763 70 93 117.442 166.531 178 210 219.061> 80 27<114 122.766 191.531 198 238 250.634> 255 21G<133 148>
VStem: 104 67<210.723 254.9>
LayerCount: 2
Fore
SplineSet
238 80 m 0
 246 80 247 82 251 94 c 0
 255 105 253 107 244 107 c 0
 198 107 l 0
 187 107 185 109 189 121 c 0
 207 176 l 0
 210 184 204 188 197 182 c 0
 187 173 171 159 161 152 c 0
 155 148 151 145 147 137 c 0
 141 120 l 0
 136 106 133 105 115 105 c 0
 80 105 l 0
 70 105 66 111 77 123 c 0
 107 155 142 190 171 245 c 0
 175 252 176 258 169 258 c 0
 162 258 156 255 140 255 c 0
 126 255 120 258 111 258 c 0
 107 258 105 256 104 252 c 0
 83 184 60 141 21 100 c 0
 17 96 15 92 15 88 c 0
 15 84 18 80 22 80 c 0
 114 80 l 0
 124 80 128 75 123 59 c 0
 118 42 l 0
 114 30 111 27 93 27 c 0
 70 27 l 0
 62 27 61 25 57 14 c 0
 53 2 55 0 63 0 c 0
 210 0 l 0
 214 0 219 1 222 13 c 0
 225 24 224 27 215 27 c 0
 178 27 l 0
 164 27 161 33 165 44 c 0
 172 66 l 0
 175 75 181 80 191 80 c 0
 238 80 l 0
EndSplineSet
EndChar

StartChar: five
Encoding: 53 53 10
Width: 238
Flags: W
HStem: -3 21G<76.5 127> 68 20G<39 56.5> 133 26<90.9375 147.256> 208 45<92.625 205.522>
VStem: 15 62<23.2271 85.8594> 155 53<39.8393 129.439>
LayerCount: 2
Fore
SplineSet
208 93 m 0
 208 36 154 -3 100 -3 c 0
 53 -3 15 23 15 53 c 0
 15 73 30 88 48 88 c 0
 65 88 77 76 77 59 c 0
 77 45 71 42 71 35 c 0
 71 26 81 23 97 23 c 0
 137 23 155 69 155 96 c 0
 155 118 142 133 113 133 c 0
 100 133 75 130 63 126 c 0
 56 124 47 126 49 132 c 0
 63 176 71 209 80 253 c 0
 81 257 82 259 86 259 c 0
 91 259 116 253 150 253 c 0
 174 253 213 259 218 259 c 0
 227 259 223 250 220 245 c 0
 199 215 163 208 133 208 c 0
 125 208 118 210 109 210 c 0
 103 210 98 205 96 197 c 0
 93 186 90 180 87 166 c 0
 86 162 86 157 93 157 c 0
 101 157 110 159 128 159 c 0
 176 159 208 131 208 93 c 0
EndSplineSet
EndChar

StartChar: six
Encoding: 54 54 11
Width: 244
Flags: W
HStem: -3 21G<75.5 125> 117 26<83.1884 139.645> 237 26<125.897 176.601>
VStem: 15 46<24.0056 135.178> 146 55<32.4786 115.254> 168 61<178.243 221.766>
LayerCount: 2
Fore
SplineSet
114 117 m 0xf8
 81 117 69 103 63 76 c 0
 62 72 61 68 61 64 c 0
 61 43 71 21 97 21 c 0
 127 21 146 54 146 83 c 0
 146 106 132 117 114 117 c 0xf8
161 237 m 0
 125 237 92 196 80 155 c 0
 78 149 78 140 86 140 c 0
 96 140 104 143 122 143 c 0
 165 143 201 125 201 81 c 0xf8
 201 32 151 -3 99 -3 c 0
 52 -3 15 29 15 93 c 0
 15 165 78 263 165 263 c 0
 203 263 229 241 229 213 c 0
 229 190 215 176 194 176 c 0
 179 176 168 187 168 201 c 0xf4
 168 212 173 217 176 222 c 0
 180 228 177 237 161 237 c 0
EndSplineSet
EndChar

StartChar: seven
Encoding: 55 55 12
Width: 246
Flags: HW
LayerCount: 2
Fore
SplineSet
175.171 176 m 0
 171.171 175 164.171 173 159.171 173 c 0
 134.171 173 128.171 203 99.171 203 c 0
 82.171 203 70.171 189 62.171 162 c 0
 59.171 154 57.171 153 49.171 153 c 0
 43.171 153 l 0
 34.171 153 34.171 156 37.171 167 c 0
 61.171 249 l 0
 64.171 260 64.171 263 74.171 263 c 0
 82.171 263 l 0
 88.171 263 89.171 259 88.171 254 c 0
 86.171 243 l 0
 83.171 225 95.171 227 108.171 240 c 0
 119.171 251 126.171 256 139.171 256 c 0
 169.171 256 170.171 217 192.171 217 c 0
 207.171 217 220.171 230 227.171 249 c 0
 231.171 261 233.171 263 245.171 263 c 0
 256.171 263 257.171 259 255.171 252 c 0
 221.171 128 138.171 80 118.171 5 c 0
 116.171 -1 115.171 -2 111.171 -2 c 0
 101.171 -2 96.171 0 81.171 0 c 0
 61.171 0 57.171 -2 48.171 -2 c 0
 43.171 -2 41.171 2 43.171 6 c 0
 89.171 95 146.171 106 186.171 162 c 0
 195.171 174 188.171 180 175.171 176 c 0
EndSplineSet
EndChar

StartChar: eight
Encoding: 56 56 13
Width: 254
Flags: HW
LayerCount: 2
Fore
SplineSet
239 196 m 0
 239 178 227 157 211 145 c 0
 190 128 187 126 197 103 c 0
 201 92 204 81 204 71 c 0
 204 27 156 -2 105 -2 c 0
 61 -2 15 26 15 70 c 0
 15 95 33 121 64 139 c 0
 76 146 80 152 74 167 c 0
 71 176 66 189 66 199 c 0
 66 236 104 263 152 263 c 0
 202 263 239 234 239 196 c 0
188 159 m 0
 199 164 208 177 208 197 c 0
 208 222 183 237 154 237 c 0
 127 237 110 229 110 208 c 0
 110 195 124 175 141 161 c 0
 155 149 172 150 188 159 c 0
107 23 m 0
 141 23 159 39 159 60 c 0
 159 81 141 99 123 113 c 0
 111 123 93 123 78 117 c 0
 58 108 45 91 45 70 c 0
 45 41 77 23 107 23 c 0
EndSplineSet
EndChar

StartChar: nine
Encoding: 57 57 14
Width: 245
Flags: HW
LayerCount: 2
Fore
SplineSet
134 140 m 0
 168 140 176 153 182 183 c 0
 182 188 183 193 183 198 c 0
 183 219 174 237 149 237 c 0
 119 237 99 197 99 172 c 0
 99 148 111 140 134 140 c 0
160 98 m 0
 162 104 163 115 153 115 c 0
 148 115 138 114 122 114 c 0
 82 114 46 131 46 174 c 0
 46 227 97 263 145 263 c 0
 189 263 230 236 230 179 c 0
 230 97 165 -3 80 -3 c 0
 46 -3 15 13 15 39 c 0
 15 59 28 72 48 72 c 0
 63 72 73 62 77 50 c 0
 81 39 77 24 89 24 c 0
 124 24 152 68 160 98 c 0
EndSplineSet
EndChar

StartChar: congruent
Encoding: 64 8773 15
Width: 74
Flags: HW
LayerCount: 2
Fore
SplineSet
29 0 m 0
 29 42 45 85 74 123 c 0
 60 136 l 0
 26 102 0 59 0 0 c 0
 0 -59 26 -102 60 -136 c 0
 74 -123 l 0
 45 -85 29 -42 29 0 c 0
EndSplineSet
EndChar

StartChar: Alpha
Encoding: 65 913 16
Width: 74
Flags: HW
LayerCount: 2
Fore
SplineSet
45 0 m 0
 45 42 29 85 0 123 c 0
 14 136 l 0
 48 102 74 59 74 0 c 0
 74 -59 48 -102 14 -136 c 0
 0 -123 l 0
 29 -85 45 -42 45 0 c 0
EndSplineSet
EndChar

StartChar: Beta
Encoding: 66 914 17
Width: 96
Flags: HW
LayerCount: 2
Fore
SplineSet
0 0 m 0
 -1 87 40 154 82 200 c 0
 96 186 l 0
 63 144 30 83 31 0 c 0
 31 -83 63 -144 96 -186 c 0
 82 -200 l 0
 40 -154 0 -87 0 0 c 0
EndSplineSet
EndChar

StartChar: Chi
Encoding: 67 935 18
Width: 96
Flags: HW
LayerCount: 2
Fore
SplineSet
96 0 m 0
 97 -87 56 -154 14 -200 c 0
 0 -186 l 0
 33 -144 66 -83 65 0 c 0
 65 83 33 144 0 186 c 0
 14 200 l 0
 56 154 96 87 96 0 c 0
EndSplineSet
EndChar

StartChar: Delta
Encoding: 68 916 19
Width: 121
Flags: HW
LayerCount: 2
Fore
SplineSet
33 0 m 0
 32 128 92 209 121 252 c 0
 105 267 l 0
 61 222 -1 135 0 0 c 0
 0 -135 61 -222 105 -267 c 0
 121 -252 l 0
 92 -209 33 -128 33 0 c 0
EndSplineSet
EndChar

StartChar: Epsilon
Encoding: 69 917 20
Width: 121
Flags: HW
LayerCount: 2
Fore
SplineSet
88 0 m 0
 88 128 29 209 0 252 c 0
 16 267 l 0
 60 222 121 135 121 0 c 0
 122 -135 60 -222 16 -267 c 0
 0 -252 l 0
 29 -209 89 -128 88 0 c 0
EndSplineSet
EndChar

StartChar: Phi
Encoding: 70 934 21
Width: 132
Flags: HW
LayerCount: 2
Fore
SplineSet
35 0 m 0
 34 144 87 244 132 312 c 0
 115 328 l 0
 69 273 -1 163 0 0 c 0
 0 -163 69 -273 115 -328 c 0
 132 -312 l 0
 87 -244 35 -144 35 0 c 0
EndSplineSet
EndChar

StartChar: Gamma
Encoding: 71 915 22
Width: 132
Flags: HW
LayerCount: 2
Fore
SplineSet
97 0 m 0
 97 144 45 244 0 312 c 0
 17 328 l 0
 63 273 132 163 132 0 c 0
 133 -163 63 -273 17 -328 c 0
 0 -312 l 0
 45 -244 98 -144 97 0 c 0
EndSplineSet
EndChar

StartChar: Eta
Encoding: 72 919 23
Width: 146
Flags: HW
LayerCount: 2
Fore
SplineSet
0 -1 m 0
 -1 187 73 330 128 396 c 0
 146 378 l 0
 91 290 36 185 37 -1 c 0
 37 -185 91 -290 146 -378 c 0
 128 -396 l 0
 73 -330 0 -187 0 -1 c 0
EndSplineSet
EndChar

StartChar: Iota
Encoding: 73 921 24
Width: 146
Flags: HW
LayerCount: 2
Fore
SplineSet
146 1 m 0
 147 -187 73 -330 18 -396 c 0
 0 -378 l 0
 55 -290 110 -185 109 1 c 0
 109 185 55 290 0 378 c 0
 18 396 l 0
 73 330 146 187 146 1 c 0
EndSplineSet
EndChar

StartChar: theta1
Encoding: 74 977 25
Width: 167
Flags: HW
LayerCount: 2
Fore
SplineSet
0 0 m 0
 -1 243 100 389 146 453 c 0
 167 436 l 0
 121 366 38 233 39 0 c 0
 39 -233 121 -366 167 -436 c 0
 146 -453 l 0
 100 -389 0 -243 0 0 c 0
EndSplineSet
EndChar

StartChar: Kappa
Encoding: 75 922 26
Width: 167
Flags: HW
LayerCount: 2
Fore
SplineSet
167 0 m 0
 168 -243 67 -389 21 -453 c 0
 0 -436 l 0
 46 -366 129 -233 128 0 c 0
 128 233 46 366 0 436 c 0
 21 453 l 0
 67 389 167 243 167 0 c 0
EndSplineSet
EndChar

StartChar: Lambda
Encoding: 76 923 27
Width: 178
Flags: HW
LayerCount: 2
Fore
SplineSet
41 0 m 0
 40 268 138 429 178 498 c 0
 156 516 l 0
 110 444 -1 267 0 0 c 0
 0 -267 110 -444 156 -516 c 0
 178 -498 l 0
 138 -429 41 -268 41 0 c 0
EndSplineSet
EndChar

StartChar: Mu
Encoding: 77 924 28
Width: 178
Flags: HW
LayerCount: 2
Fore
SplineSet
137 0 m 0
 137 268 40 429 0 498 c 0
 22 516 l 0
 68 444 178 267 178 0 c 0
 179 -267 68 -444 22 -516 c 0
 0 -498 l 0
 40 -429 138 -268 137 0 c 0
EndSplineSet
EndChar

StartChar: Nu
Encoding: 78 925 29
Width: 196
Flags: HW
LayerCount: 2
Fore
SplineSet
0 0 m 0
 -1 352 141 578 172 630 c 0
 196 614 l 0
 172 568 42 355 43 0 c 0
 43 -355 172 -568 196 -614 c 0
 172 -630 l 0
 141 -578 0 -352 0 0 c 0
EndSplineSet
EndChar

StartChar: Omicron
Encoding: 79 927 30
Width: 196
Flags: HW
LayerCount: 2
Fore
SplineSet
196 0 m 0
 197 -352 55 -578 24 -630 c 0
 0 -614 l 0
 24 -568 154 -355 153 0 c 0
 153 355 24 568 0 614 c 0
 24 630 l 0
 55 578 196 352 196 0 c 0
EndSplineSet
EndChar

StartChar: Pi
Encoding: 80 928 31
Width: 214
Flags: HW
LayerCount: 2
Fore
SplineSet
0 0 m 0
 -1 432 160 708 190 760 c 0
 214 742 l 0
 191 696 44 424 45 0 c 0
 45 -424 191 -696 214 -742 c 0
 190 -760 l 0
 160 -708 0 -432 0 0 c 0
EndSplineSet
EndChar

StartChar: Theta
Encoding: 81 920 32
Width: 214
Flags: HW
LayerCount: 2
Fore
SplineSet
214 0 m 0
 215 -432 54 -708 24 -760 c 0
 0 -742 l 0
 23 -696 170 -424 169 0 c 0
 169 424 23 696 0 742 c 0
 24 760 l 0
 54 708 214 432 214 0 c 0
EndSplineSet
EndChar

StartChar: Rho
Encoding: 82 929 33
Width: 274
Flags: HW
LayerCount: 2
Fore
SplineSet
46 0 m 0
 45 466 235 813 274 878 c 0
 250 896 l 0
 210 826 -1 500 0 0 c 0
 0 -500 210 -826 250 -896 c 0
 274 -878 l 0
 235 -813 46 -466 46 0 c 0
EndSplineSet
EndChar

StartChar: Sigma
Encoding: 83 931 34
Width: 274
Flags: HW
LayerCount: 2
Fore
SplineSet
228 0 m 0
 228 466 39 813 0 878 c 0
 24 896 l 0
 64 826 274 500 274 0 c 0
 275 -500 64 -826 24 -896 c 0
 0 -878 l 0
 39 -813 229 -466 228 0 c 0
EndSplineSet
EndChar

StartChar: Tau
Encoding: 84 932 35
Width: 302
Flags: HW
LayerCount: 2
Fore
SplineSet
47 0 m 0
 46 573 274 944 302 994 c 0
 277 1012 l 0
 245 954 -1 597 0 0 c 0
 0 -597 245 -954 277 -1012 c 0
 302 -994 l 0
 274 -944 47 -573 47 0 c 0
EndSplineSet
EndChar

StartChar: Upsilon
Encoding: 85 933 36
Width: 302
Flags: HW
LayerCount: 2
Fore
SplineSet
255 0 m 0
 255 573 28 944 0 994 c 0
 25 1012 l 0
 57 954 302 597 302 0 c 0
 303 -597 57 -954 25 -1012 c 0
 0 -994 l 0
 28 -944 256 -573 255 0 c 0
EndSplineSet
EndChar

StartChar: sigma1
Encoding: 86 962 37
Width: 332
Flags: HW
LayerCount: 2
Fore
SplineSet
0 0 m 0
 -1 673 276 1086 306 1140 c 0
 332 1120 l 0
 305 1074 47 653 48 0 c 0
 48 -653 305 -1074 332 -1120 c 0
 306 -1140 l 0
 276 -1086 0 -673 0 0 c 0
EndSplineSet
EndChar

StartChar: Omega
Encoding: 87 937 38
Width: 332
Flags: HW
LayerCount: 2
Fore
SplineSet
332 0 m 0
 333 -673 56 -1086 26 -1140 c 0
 0 -1120 l 0
 27 -1074 285 -653 284 0 c 0
 284 653 27 1074 0 1120 c 0
 26 1140 l 0
 56 1086 332 673 332 0 c 0
EndSplineSet
EndChar

StartChar: Xi
Encoding: 88 926 39
Width: 250
Flags: HW
LayerCount: 2
Fore
SplineSet
125 38 m 0
 48 38 18 -6 8 -6 c 0
 4 -6 0 -6 0 0 c 0
 0 18 53 70 125 70 c 0
 197 70 250 18 250 0 c 0
 250 -6 246 -6 242 -6 c 0
 232 -6 202 38 125 38 c 0
EndSplineSet
EndChar

StartChar: Psi
Encoding: 89 936 40
Width: 376
Flags: HW
LayerCount: 2
Fore
SplineSet
188 66 m 0
 73 66 23 -8 7 -8 c 0
 2 -8 0 -7 0 0 c 0
 0 18 80 100 188 100 c 0
 296 100 376 18 376 0 c 0
 376 -7 374 -8 369 -8 c 0
 353 -8 303 66 188 66 c 0
EndSplineSet
EndChar

StartChar: Zeta
Encoding: 90 918 41
Width: 500
Flags: HW
LayerCount: 2
Fore
SplineSet
250 123 m 0
 414 123 500 17 500 0 c 0
 500 -6 497 -8 491 -8 c 0
 476 -8 428 87 250 87 c 0
 72 87 24 -8 9 -8 c 0
 3 -8 0 -6 0 0 c 0
 0 17 86 123 250 123 c 0
EndSplineSet
EndChar

StartChar: bracketleft
Encoding: 91 91 42
Width: 250
Flags: HW
LayerCount: 2
Fore
SplineSet
125 -38 m 0
 202 -38 232 6 242 6 c 0
 246 6 250 6 250 0 c 0
 250 -18 197 -70 125 -70 c 0
 53 -70 0 -18 0 0 c 0
 0 6 4 6 8 6 c 0
 18 6 48 -38 125 -38 c 0
EndSplineSet
EndChar

StartChar: therefore
Encoding: 92 8756 43
Width: 376
Flags: HW
LayerCount: 2
Fore
SplineSet
188 -66 m 0
 303 -66 353 8 369 8 c 0
 374 8 376 7 376 0 c 0
 376 -18 296 -100 188 -100 c 0
 80 -100 0 -18 0 0 c 0
 0 7 2 8 7 8 c 0
 23 8 73 -66 188 -66 c 0
EndSplineSet
EndChar

StartChar: bracketright
Encoding: 93 93 44
Width: 500
Flags: HW
LayerCount: 2
Fore
SplineSet
250 -123 m 0
 86 -123 0 -17 0 0 c 0
 0 6 3 8 9 8 c 0
 24 8 72 -87 250 -87 c 0
 428 -87 476 8 491 8 c 0
 497 8 500 6 500 0 c 0
 500 -17 414 -123 250 -123 c 0
EndSplineSet
EndChar

StartChar: perpendicular
Encoding: 94 8869 45
Width: 376
Flags: HW
LayerCount: 2
Fore
SplineSet
188 56 m 0
 80 56 23 -8 7 -8 c 0
 2 -8 0 -7 0 0 c 0
 0 18 88 87 188 87 c 0
 288 87 376 18 376 0 c 0
 376 -7 374 -8 369 -8 c 0
 353 -8 296 56 188 56 c 0
EndSplineSet
EndChar

StartChar: underscore
Encoding: 95 95 46
Width: 500
Flags: HW
LayerCount: 2
Fore
SplineSet
250 103 m 0
 390 103 500 17 500 0 c 0
 500 -6 497 -8 491 -8 c 0
 476 -8 400 72 250 72 c 0
 100 72 24 -8 9 -8 c 0
 3 -8 0 -6 0 0 c 0
 0 17 110 103 250 103 c 0
EndSplineSet
EndChar

StartChar: uniF8E5
Encoding: 96 63717 47
Width: 750
Flags: HW
LayerCount: 2
Fore
SplineSet
375 94 m 0
 140 94 31 -10 9 -10 c 0
 4 -10 0 -9 0 -1 c 0
 0 24 165 125 375 125 c 0
 585 125 750 24 750 -1 c 0
 750 -9 746 -10 741 -10 c 0
 719 -10 610 94 375 94 c 0
EndSplineSet
EndChar

StartChar: alpha
Encoding: 97 945 48
Width: 1000
Flags: HW
LayerCount: 2
Fore
SplineSet
500 115 m 0
 200 115 29 -8 8 -8 c 0
 1 -8 0 -5 0 0 c 0
 0 21 220 146 500 146 c 0
 780 146 1000 21 1000 0 c 0
 1000 -5 999 -8 992 -8 c 0
 971 -8 800 115 500 115 c 0
EndSplineSet
EndChar

StartChar: beta
Encoding: 98 946 49
Width: 376
Flags: HW
LayerCount: 2
Fore
SplineSet
188 -56 m 0
 296 -56 353 8 369 8 c 0
 374 8 376 7 376 0 c 0
 376 -18 288 -87 188 -87 c 0
 88 -87 0 -18 0 0 c 0
 0 7 2 8 7 8 c 0
 23 8 80 -56 188 -56 c 0
EndSplineSet
EndChar

StartChar: chi
Encoding: 99 967 50
Width: 500
Flags: HW
LayerCount: 2
Fore
SplineSet
250 -103 m 0
 110 -103 0 -17 0 0 c 0
 0 6 3 8 9 8 c 0
 24 8 100 -72 250 -72 c 0
 400 -72 476 8 491 8 c 0
 497 8 500 6 500 0 c 0
 500 -17 390 -103 250 -103 c 0
EndSplineSet
EndChar

StartChar: delta
Encoding: 100 948 51
Width: 750
Flags: HW
LayerCount: 2
Fore
SplineSet
375 -94 m 0
 610 -94 719 10 741 10 c 0
 746 10 750 9 750 1 c 0
 750 -24 585 -125 375 -125 c 0
 165 -125 0 -24 0 1 c 0
 0 9 4 10 9 10 c 0
 31 10 140 -94 375 -94 c 0
EndSplineSet
EndChar

StartChar: epsilon
Encoding: 101 949 52
Width: 1000
Flags: HW
LayerCount: 2
Fore
SplineSet
500 -115 m 0
 800 -115 971 8 992 8 c 0
 999 8 1000 5 1000 0 c 0
 1000 -21 780 -146 500 -146 c 0
 220 -146 0 -21 0 0 c 0
 0 5 1 8 8 8 c 0
 29 8 200 -115 500 -115 c 0
EndSplineSet
EndChar

StartChar: phi
Encoding: 102 966 53
Width: 95
Flags: HW
LayerCount: 2
Fore
SplineSet
26 98 m 0
 26 -97 l 0
 26 -103 33 -109 37 -109 c 0
 95 -109 l 0
 95 -135 l 0
 0 -135 l 0
 0 135 l 0
 95 135 l 0
 95 109 l 0
 37 109 l 0
 32 109 26 102 26 98 c 0
EndSplineSet
EndChar

StartChar: gamma
Encoding: 103 947 54
Width: 95
Flags: HW
LayerCount: 2
Fore
SplineSet
69 -98 m 0
 69 97 l 0
 69 103 62 109 58 109 c 0
 0 109 l 0
 0 135 l 0
 95 135 l 0
 95 -135 l 0
 0 -135 l 0
 0 -109 l 0
 58 -109 l 0
 63 -109 69 -102 69 -98 c 0
EndSplineSet
EndChar

StartChar: eta
Encoding: 104 951 55
Width: 105
Flags: HW
LayerCount: 2
Fore
SplineSet
27 160 m 0
 27 -159 l 0
 27 -165 34 -171 38 -171 c 0
 105 -171 l 0
 105 -198 l 0
 0 -198 l 0
 0 198 l 0
 105 198 l 0
 105 171 l 0
 38 171 l 0
 33 171 27 164 27 160 c 0
EndSplineSet
EndChar

StartChar: iota
Encoding: 105 953 56
Width: 105
Flags: HW
LayerCount: 2
Fore
SplineSet
78 -160 m 0
 78 159 l 0
 78 165 71 171 67 171 c 0
 0 171 l 0
 0 198 l 0
 105 198 l 0
 105 -198 l 0
 0 -198 l 0
 0 -171 l 0
 67 -171 l 0
 72 -171 78 -164 78 -160 c 0
EndSplineSet
EndChar

StartChar: phi1
Encoding: 106 981 57
Width: 115
Flags: HW
LayerCount: 2
Fore
SplineSet
28 222 m 0
 28 -221 l 0
 28 -227 35 -233 39 -233 c 0
 115 -233 l 0
 115 -261 l 0
 0 -261 l 0
 0 261 l 0
 115 261 l 0
 115 233 l 0
 39 233 l 0
 34 233 28 226 28 222 c 0
EndSplineSet
EndChar

StartChar: kappa
Encoding: 107 954 58
Width: 115
Flags: HW
LayerCount: 2
Fore
SplineSet
87 -222 m 0
 87 221 l 0
 87 227 80 233 76 233 c 0
 0 233 l 0
 0 261 l 0
 115 261 l 0
 115 -261 l 0
 0 -261 l 0
 0 -233 l 0
 76 -233 l 0
 81 -233 87 -226 87 -222 c 0
EndSplineSet
EndChar

StartChar: lambda
Encoding: 108 955 59
Width: 125
Flags: HW
LayerCount: 2
Fore
SplineSet
29 283 m 0
 29 -282 l 0
 29 -288 36 -294 40 -294 c 0
 125 -294 l 0
 125 -323 l 0
 0 -323 l 0
 0 323 l 0
 125 323 l 0
 125 294 l 0
 40 294 l 0
 35 294 29 287 29 283 c 0
EndSplineSet
EndChar

StartChar: mu
Encoding: 109 956 60
Width: 125
Flags: HW
LayerCount: 2
Fore
SplineSet
96 -283 m 0
 96 282 l 0
 96 288 89 294 85 294 c 0
 0 294 l 0
 0 323 l 0
 125 323 l 0
 125 -323 l 0
 0 -323 l 0
 0 -294 l 0
 85 -294 l 0
 90 -294 96 -287 96 -283 c 0
EndSplineSet
EndChar

StartChar: nu
Encoding: 110 957 61
Width: 135
Flags: HW
LayerCount: 2
Fore
SplineSet
30 344 m 0
 30 -343 l 0
 30 -349 37 -355 41 -355 c 0
 135 -355 l 0
 135 -385 l 0
 0 -385 l 0
 0 385 l 0
 135 385 l 0
 135 355 l 0
 41 355 l 0
 36 355 30 348 30 344 c 0
EndSplineSet
EndChar

StartChar: omicron
Encoding: 111 959 62
Width: 135
Flags: HW
LayerCount: 2
Fore
SplineSet
105 -344 m 0
 105 343 l 0
 105 349 98 355 94 355 c 0
 0 355 l 0
 0 385 l 0
 135 385 l 0
 135 -385 l 0
 0 -385 l 0
 0 -355 l 0
 94 -355 l 0
 99 -355 105 -348 105 -344 c 0
EndSplineSet
EndChar

StartChar: pi
Encoding: 112 960 63
Width: 145
Flags: HW
LayerCount: 2
Fore
SplineSet
30 407 m 0
 30 -406 l 0
 30 -412 37 -418 41 -418 c 0
 145 -418 l 0
 145 -448 l 0
 0 -448 l 0
 0 448 l 0
 145 448 l 0
 145 418 l 0
 41 418 l 0
 36 418 30 411 30 407 c 0
EndSplineSet
EndChar

StartChar: theta
Encoding: 113 952 64
Width: 145
Flags: HW
LayerCount: 2
Fore
SplineSet
115 -407 m 0
 115 406 l 0
 115 412 108 418 104 418 c 0
 0 418 l 0
 0 448 l 0
 145 448 l 0
 145 -448 l 0
 0 -448 l 0
 0 -418 l 0
 104 -418 l 0
 109 -418 115 -411 115 -407 c 0
EndSplineSet
EndChar

StartChar: rho
Encoding: 114 961 65
Width: 155
Flags: HW
LayerCount: 2
Fore
SplineSet
30 469 m 0
 30 -468 l 0
 30 -474 37 -480 41 -480 c 0
 155 -480 l 0
 155 -510 l 0
 0 -510 l 0
 0 510 l 0
 155 510 l 0
 155 480 l 0
 41 480 l 0
 36 480 30 473 30 469 c 0
EndSplineSet
EndChar

StartChar: sigma
Encoding: 115 963 66
Width: 155
Flags: HW
LayerCount: 2
Fore
SplineSet
125 -469 m 0
 125 468 l 0
 125 474 118 480 114 480 c 0
 0 480 l 0
 0 510 l 0
 155 510 l 0
 155 -510 l 0
 0 -510 l 0
 0 -480 l 0
 114 -480 l 0
 119 -480 125 -473 125 -469 c 0
EndSplineSet
EndChar

StartChar: tau
Encoding: 116 964 67
Width: 165
Flags: HW
LayerCount: 2
Fore
SplineSet
30 594 m 0
 30 -593 l 0
 30 -599 37 -605 41 -605 c 0
 165 -605 l 0
 165 -635 l 0
 0 -635 l 0
 0 635 l 0
 165 635 l 0
 165 605 l 0
 41 605 l 0
 36 605 30 598 30 594 c 0
EndSplineSet
EndChar

StartChar: upsilon
Encoding: 117 965 68
Width: 165
Flags: HW
LayerCount: 2
Fore
SplineSet
135 -594 m 0
 135 593 l 0
 135 599 128 605 124 605 c 0
 0 605 l 0
 0 635 l 0
 165 635 l 0
 165 -635 l 0
 0 -635 l 0
 0 -605 l 0
 124 -605 l 0
 129 -605 135 -598 135 -594 c 0
EndSplineSet
EndChar

StartChar: omega1
Encoding: 118 982 69
Width: 175
Flags: HW
LayerCount: 2
Fore
SplineSet
30 719 m 0
 30 -718 l 0
 30 -724 37 -730 41 -730 c 0
 175 -730 l 0
 175 -760 l 0
 0 -760 l 0
 0 760 l 0
 175 760 l 0
 175 730 l 0
 41 730 l 0
 36 730 30 723 30 719 c 0
EndSplineSet
EndChar

StartChar: omega
Encoding: 119 969 70
Width: 175
Flags: HW
LayerCount: 2
Fore
SplineSet
145 -719 m 0
 145 718 l 0
 145 724 138 730 134 730 c 0
 0 730 l 0
 0 760 l 0
 175 760 l 0
 175 -760 l 0
 0 -760 l 0
 0 -730 l 0
 134 -730 l 0
 139 -730 145 -723 145 -719 c 0
EndSplineSet
EndChar

StartChar: xi
Encoding: 120 958 71
Width: 185
Flags: HW
LayerCount: 2
Fore
SplineSet
30 844 m 0
 30 -843 l 0
 30 -849 37 -855 41 -855 c 0
 185 -855 l 0
 185 -885 l 0
 0 -885 l 0
 0 885 l 0
 185 885 l 0
 185 855 l 0
 41 855 l 0
 36 855 30 848 30 844 c 0
EndSplineSet
EndChar

StartChar: psi
Encoding: 121 968 72
Width: 185
Flags: HW
LayerCount: 2
Fore
SplineSet
155 -844 m 0
 155 843 l 0
 155 849 148 855 144 855 c 0
 0 855 l 0
 0 885 l 0
 185 885 l 0
 185 -885 l 0
 0 -885 l 0
 0 -855 l 0
 144 -855 l 0
 149 -855 155 -848 155 -844 c 0
EndSplineSet
EndChar

StartChar: zeta
Encoding: 122 950 73
Width: 195
Flags: HW
LayerCount: 2
Fore
SplineSet
30 969 m 0
 30 -968 l 0
 30 -974 37 -980 41 -980 c 0
 195 -980 l 0
 195 -1010 l 0
 0 -1010 l 0
 0 1010 l 0
 195 1010 l 0
 195 980 l 0
 41 980 l 0
 36 980 30 973 30 969 c 0
EndSplineSet
EndChar

StartChar: braceleft
Encoding: 123 123 74
Width: 195
Flags: HW
LayerCount: 2
Fore
SplineSet
165 -969 m 0
 165 968 l 0
 165 974 158 980 154 980 c 0
 0 980 l 0
 0 1010 l 0
 195 1010 l 0
 195 -1010 l 0
 0 -1010 l 0
 0 -980 l 0
 154 -980 l 0
 159 -980 165 -973 165 -969 c 0
EndSplineSet
EndChar

StartChar: bar
Encoding: 124 124 75
Width: 205
Flags: HW
LayerCount: 2
Fore
SplineSet
30 1094 m 0
 30 -1093 l 0
 30 -1099 37 -1105 41 -1105 c 0
 205 -1105 l 0
 205 -1135 l 0
 0 -1135 l 0
 0 1135 l 0
 205 1135 l 0
 205 1105 l 0
 41 1105 l 0
 36 1105 30 1098 30 1094 c 0
EndSplineSet
EndChar

StartChar: braceright
Encoding: 125 125 76
Width: 205
Flags: HW
LayerCount: 2
Fore
SplineSet
175 -1094 m 0
 175 1093 l 0
 175 1099 168 1105 164 1105 c 0
 0 1105 l 0
 0 1135 l 0
 205 1135 l 0
 205 -1135 l 0
 0 -1135 l 0
 0 -1105 l 0
 164 -1105 l 0
 169 -1105 175 -1098 175 -1094 c 0
EndSplineSet
EndChar

StartChar: similar
Encoding: 126 8764 77
Width: 460
Flags: HW
LayerCount: 2
Fore
SplineSet
141 18 m 0
 156 18 170 31 170 45 c 0
 170 159 l 0
 170 182 173 192 196 192 c 0
 268 192 l 0
 284 192 290 187 290 168 c 0
 290 45 l 0
 290 31 298 18 319 18 c 0
 536 18 l 0
 548 18 550 16 550 0 c 0
 550 -16 548 -18 535 -18 c 0
 319 -18 l 0
 301 -18 290 -29 290 -47 c 0
 290 -165 l 0
 290 -183 282 -189 263 -189 c 0
 195 -189 l 0
 174 -189 170 -181 170 -156 c 0
 170 -47 l 0
 170 -31 156 -18 141 -18 c 0
 -72 -18 l 0
 -88 -18 -90 -16 -90 0 c 0
 -90 16 -89 18 -73 18 c 0
 141 18 l 0
EndSplineSet
EndChar

StartChar: uni007F
Encoding: 127 127 78
Width: 460
Flags: HW
LayerCount: 2
Fore
SplineSet
170 459 m 0
 170 482 173 492 196 492 c 0
 268 492 l 0
 284 492 290 487 290 468 c 0
 290 155 l 0
 290 137 282 131 263 131 c 0
 195 131 l 0
 174 131 170 139 170 164 c 0
 170 459 l 0
537 18 m 0
 549 18 550 15 550 0 c 0
 550 -15 549 -18 536 -18 c 0
 -75 -18 l 0
 -89 -18 -90 -16 -90 0 c 0
 -90 15 -90 18 -76 18 c 0
 537 18 l 0
EndSplineSet
EndChar

StartChar: uni0080
Encoding: 128 128 79
Width: 460
Flags: HW
LayerCount: 2
Fore
SplineSet
537 18 m 0
 549 18 550 15 550 0 c 0
 550 -15 549 -18 536 -18 c 0
 -75 -18 l 0
 -89 -18 -90 -16 -90 0 c 0
 -90 15 -90 18 -76 18 c 0
 537 18 l 0
170 -459 m 0
 170 -164 l 0
 170 -139 174 -131 195 -131 c 0
 263 -131 l 0
 282 -131 290 -137 290 -155 c 0
 290 -468 l 0
 290 -487 284 -492 268 -492 c 0
 196 -492 l 0
 173 -492 170 -482 170 -459 c 0
EndSplineSet
EndChar

StartChar: uni0081
Encoding: 129 129 80
Width: 316
Flags: HW
LayerCount: 2
Fore
SplineSet
111 18 m 0
 126 18 140 31 140 45 c 0
 140 567 l 0
 140 581 140 582 156 582 c 0
 159 582 l 0
 172 582 176 581 176 567 c 0
 176 45 l 0
 176 31 184 18 205 18 c 0
 382 18 l 0
 395 18 396 15 396 0 c 0
 396 -13 395 -18 381 -18 c 0
 205 -18 l 0
 187 -18 176 -29 176 -47 c 0
 176 -562 l 0
 176 -578 173 -579 158 -579 c 0
 157 -579 l 0
 141 -579 140 -579 140 -564 c 0
 140 -47 l 0
 140 -31 126 -18 111 -18 c 0
 -68 -18 l 0
 -79 -18 -80 -14 -80 0 c 0
 -80 15 -79 18 -69 18 c 0
 111 18 l 0
EndSplineSet
EndChar

StartChar: colon
Encoding: 58 58 81
Width: 166
Flags: HW
LayerCount: 2
Fore
SplineSet
0 65 m 0
 0 71 6 72 8 72 c 0
 26 72 48 44 84 44 c 0
 118 44 146 72 160 72 c 0
 162 72 166 70 166 65 c 0
 166 55 156 46 122 -13 c 0
 94 -62 92 -82 82 -82 c 0
 68 -82 72 -63 42 -12 c 0
 10 41 0 53 0 65 c 0
EndSplineSet
EndChar

StartChar: semicolon
Encoding: 59 59 82
Width: 166
Flags: HW
LayerCount: 2
Fore
SplineSet
86 0 m 0
 68 0 66 7 66 30 c 0
 66 501 l 0
 66 558 28 512 6 512 c 0
 4 512 0 514 0 519 c 0
 0 529 10 538 44 597 c 0
 72 646 74 666 84 666 c 0
 98 666 96 647 124 596 c 0
 154 542 166 531 166 519 c 0
 166 513 160 512 158 512 c 0
 134 512 104 555 104 501 c 0
 104 30 l 0
 104 8 100 0 86 0 c 0
EndSplineSet
EndChar

StartChar: less
Encoding: 60 60 83
Width: 166
Flags: HW
LayerCount: 2
Fore
SplineSet
80 666 m 0
 98 666 100 659 100 636 c 0
 100 165 l 0
 100 108 138 154 160 154 c 0
 162 154 166 152 166 147 c 0
 166 137 156 128 122 69 c 0
 94 20 92 0 82 0 c 0
 68 0 70 19 42 70 c 0
 12 124 0 135 0 147 c 0
 0 153 6 154 8 154 c 0
 32 154 62 111 62 165 c 0
 62 636 l 0
 62 658 66 666 80 666 c 0
EndSplineSet
EndChar

StartChar: equal
Encoding: 61 61 84
Width: 666
Flags: HW
LayerCount: 2
Fore
SplineSet
0 80 m 0
 0 98 7 100 30 100 c 0
 501 100 l 0
 558 100 512 138 512 160 c 0
 512 162 514 166 519 166 c 0
 529 166 538 156 597 122 c 0
 646 94 666 92 666 82 c 0
 666 68 647 70 596 42 c 0
 542 12 531 0 519 0 c 0
 513 0 512 6 512 8 c 0
 512 32 555 62 501 62 c 0
 30 62 l 0
 8 62 0 66 0 80 c 0
EndSplineSet
EndChar

StartChar: greater
Encoding: 62 62 85
Width: 666
Flags: HW
LayerCount: 2
Fore
SplineSet
666 86 m 0
 666 68 659 66 636 66 c 0
 165 66 l 0
 108 66 154 28 154 6 c 0
 154 4 152 0 147 0 c 0
 137 0 128 10 69 44 c 0
 20 72 0 74 0 84 c 0
 0 98 19 96 70 124 c 0
 124 154 135 166 147 166 c 0
 153 166 154 160 154 158 c 0
 154 134 111 104 165 104 c 0
 636 104 l 0
 658 104 666 100 666 86 c 0
EndSplineSet
EndChar

StartChar: uni0082
Encoding: 130 130 86
Width: 400
Flags: HW
LayerCount: 2
Fore
SplineSet
34 302 m 0
 34 159 102 62 200 62 c 0
 296 62 366 155 366 302 c 0
 366 445 298 542 200 542 c 0
 104 542 34 449 34 302 c 0
2 302 m 0
 2 456 79 574 200 574 c 0
 325 574 398 452 398 302 c 0
 398 148 321 30 200 30 c 0
 75 30 2 152 2 302 c 0
140 469 m 0
 140 492 143 502 166 502 c 0
 238 502 l 0
 254 502 260 497 260 478 c 0
 260 125 l 0
 260 107 252 101 233 101 c 0
 165 101 l 0
 144 101 140 109 140 134 c 0
 140 469 l 0
507 18 m 0
 519 18 520 15 520 0 c 0
 520 -15 519 -18 506 -18 c 0
 -105 -18 l 0
 -119 -18 -120 -16 -120 0 c 0
 -120 15 -120 18 -106 18 c 0
 507 18 l 0
EndSplineSet
EndChar

StartChar: uni0083
Encoding: 131 131 87
Width: 400
Flags: HW
LayerCount: 2
Fore
SplineSet
366 -302 m 0
 366 -159 298 -62 200 -62 c 0
 104 -62 34 -155 34 -302 c 0
 34 -445 102 -542 200 -542 c 0
 296 -542 366 -449 366 -302 c 0
398 -302 m 0
 398 -456 321 -574 200 -574 c 0
 75 -574 2 -452 2 -302 c 0
 2 -148 79 -30 200 -30 c 0
 325 -30 398 -152 398 -302 c 0
260 -469 m 0
 260 -492 257 -502 234 -502 c 0
 162 -502 l 0
 146 -502 140 -497 140 -478 c 0
 140 -125 l 0
 140 -107 148 -101 167 -101 c 0
 235 -101 l 0
 256 -101 260 -109 260 -134 c 0
 260 -469 l 0
-107 -18 m 0
 -119 -18 -120 -15 -120 0 c 0
 -120 15 -119 18 -106 18 c 0
 505 18 l 0
 519 18 520 16 520 0 c 0
 520 -15 520 -18 506 -18 c 0
 -107 -18 l 0
EndSplineSet
EndChar

StartChar: uni0084
Encoding: 132 132 88
Width: 270
Flags: HW
LayerCount: 2
Fore
SplineSet
0 0 m 0
 0 7 5 13 14 25 c 0
 95 127 155 229 155 380 c 0
 155 586 19 788 19 1085 c 0
 19 1397 187 1656 232 1719 c 0
 241 1732 251 1738 259 1738 c 0
 265 1738 270 1733 270 1725 c 0
 270 1719 268 1712 263 1704 c 0
 170 1549 113 1362 113 1185 c 0
 113 902 248 669 248 483 c 0
 248 296 150 135 60 28 c 0
 50 17 43 11 43 0 c 0
 43 -10 50 -17 60 -28 c 0
 150 -135 248 -296 248 -483 c 0
 248 -669 113 -902 113 -1185 c 0
 113 -1362 170 -1549 263 -1704 c 0
 268 -1712 270 -1719 270 -1725 c 0
 270 -1733 265 -1738 259 -1738 c 0
 251 -1738 241 -1732 232 -1719 c 0
 187 -1656 19 -1397 19 -1085 c 0
 19 -788 155 -586 155 -380 c 0
 155 -229 95 -127 14 -25 c 0
 5 -13 0 -6 0 0 c 0
EndSplineSet
EndChar

StartChar: uni0085
Encoding: 133 133 89
Width: 270
Flags: HW
LayerCount: 2
Fore
SplineSet
43 0 m 0
 43 -11 50 -17 60 -28 c 0
 150 -135 248 -296 248 -483 c 0
 248 -669 113 -915 113 -1248 c 0
 113 -1468 170 -1675 263 -1830 c 0
 268 -1838 270 -1845 270 -1851 c 0
 270 -1859 265 -1864 259 -1864 c 0
 251 -1864 241 -1858 232 -1845 c 0
 187 -1782 19 -1482 19 -1148 c 0
 19 -804 155 -586 155 -380 c 0
 155 -229 95 -127 14 -25 c 0
 5 -13 0 -7 0 0 c 0
 0 8 5 13 14 25 c 0
 95 127 155 229 155 380 c 0
 155 586 19 804 19 1148 c 0
 19 1482 187 1782 232 1845 c 0
 241 1858 251 1864 259 1864 c 0
 265 1864 270 1859 270 1851 c 0
 270 1845 268 1838 263 1830 c 0
 170 1675 113 1468 113 1248 c 0
 113 915 248 669 248 483 c 0
 248 296 150 135 60 28 c 0
 50 17 43 12 43 0 c 0
EndSplineSet
EndChar

StartChar: uni0086
Encoding: 134 134 90
Width: 270
Flags: HW
LayerCount: 2
Fore
SplineSet
43 0 m 0
 43 -12 50 -17 60 -28 c 0
 150 -135 248 -286 248 -489 c 0
 248 -708 113 -928 113 -1308 c 0
 113 -1554 170 -1795 263 -1950 c 0
 268 -1958 270 -1965 270 -1971 c 0
 270 -1979 265 -1984 259 -1984 c 0
 251 -1984 241 -1978 232 -1965 c 0
 187 -1902 19 -1572 19 -1208 c 0
 19 -810 155 -636 155 -386 c 0
 155 -228 95 -127 14 -25 c 0
 5 -13 0 -8 0 0 c 0
 0 9 5 13 14 25 c 0
 95 127 155 228 155 386 c 0
 155 636 19 810 19 1208 c 0
 19 1572 187 1902 232 1965 c 0
 241 1978 251 1984 259 1984 c 0
 265 1984 270 1979 270 1971 c 0
 270 1965 268 1958 263 1950 c 0
 170 1795 113 1554 113 1308 c 0
 113 928 248 708 248 489 c 0
 248 286 150 135 60 28 c 0
 50 17 43 13 43 0 c 0
EndSplineSet
EndChar

StartChar: uni0087
Encoding: 135 135 91
Width: 126
Flags: HW
LayerCount: 2
Fore
SplineSet
32 0 m 0
 32 8 38 11 45 20 c 0
 74 54 126 103 126 165 c 0
 126 243 62 283 62 365 c 0
 62 416 88 442 121 486 c 0
 124 490 126 494 126 497 c 0
 126 502 121 505 116 505 c 0
 111 505 106 503 101 499 c 0
 82 482 12 410 12 320 c 0
 12 234 72 204 72 135 c 0
 72 83 37 49 13 19 c 0
 6 10 0 7 0 0 c 0
 0 -6 6 -10 13 -19 c 0
 37 -49 72 -83 72 -135 c 0
 72 -204 12 -234 12 -320 c 0
 12 -410 82 -482 101 -499 c 0
 106 -503 111 -505 116 -505 c 0
 121 -505 126 -502 126 -497 c 0
 126 -494 124 -490 121 -486 c 0
 88 -442 62 -416 62 -365 c 0
 62 -283 126 -243 126 -165 c 0
 126 -103 74 -54 45 -20 c 0
 38 -11 32 -7 32 0 c 0
EndSplineSet
EndChar

StartChar: uni0088
Encoding: 136 136 92
Width: 778
Flags: HW
LayerCount: 2
Fore
SplineSet
-19 0 m 0
 -19 17 -11 19 0 19 c 0
 143 19 262 -21 357 -84 c 0
 382 -101 399 -98 424 -82 c 0
 521 -19 639 19 778 19 c 0
 795 19 797 14 797 0 c 0
 797 -14 795 -19 778 -19 c 0
 649 -19 540 -53 450 -110 c 0
 429 -124 426 -137 445 -155 c 0
 589 -295 657 -493 657 -663 c 0
 657 -855 568 -1023 389 -1023 c 0
 312 -1023 251 -991 208 -941 c 0
 58 -769 101 -380 333 -155 c 0
 352 -136 349 -124 328 -110 c 0
 240 -54 132 -19 0 -19 c 0
 -13 -19 -19 -15 -19 0 c 0
364 -178 m 0
 140 -391 105 -762 235 -915 c 0
 272 -958 322 -985 389 -985 c 0
 537 -985 619 -848 619 -663 c 0
 619 -500 552 -309 413 -177 c 0
 397 -162 380 -162 364 -178 c 0
EndSplineSet
EndChar

StartChar: uni0089
Encoding: 137 137 93
Width: 778
Flags: HW
LayerCount: 2
Fore
SplineSet
-19 0 m 0
 -19 15 -13 19 0 19 c 0
 132 19 240 54 328 110 c 0
 349 124 352 136 333 155 c 0
 101 380 58 769 208 941 c 0
 251 991 312 1023 389 1023 c 0
 568 1023 657 855 657 663 c 0
 657 493 589 295 445 155 c 0
 426 137 429 124 450 110 c 0
 540 53 649 19 778 19 c 0
 795 19 797 14 797 0 c 0
 797 -14 795 -19 778 -19 c 0
 639 -19 521 19 424 82 c 0
 399 98 382 101 357 84 c 0
 262 21 143 -19 0 -19 c 0
 -11 -19 -19 -17 -19 0 c 0
364 178 m 0
 380 162 397 162 413 177 c 0
 552 309 619 500 619 663 c 0
 619 848 537 985 389 985 c 0
 322 985 272 958 235 915 c 0
 105 762 140 391 364 178 c 0
EndSplineSet
EndChar

StartChar: uni008A
Encoding: 138 138 94
Width: 1600
Flags: HW
LayerCount: 2
Fore
SplineSet
-19 -410 m 0
 -19 -396.242 -15.3333 -391 0 -391 c 0
 376.465 -391 376.703 406 800 406 c 0
 1225.39 406 1225.16 -391 1600 -391 c 0
 1613.76 -391 1619 -394 1619 -410 c 0
 1619 -425.5 1613.76 -429 1600 -429 c 0
 1176.7 -429 1176.46 364 800 364 c 0
 425.156 364 425.393 -429 0 -429 c 0
 -16 -429 -19 -423.758 -19 -410 c 0
EndSplineSet
EndChar

StartChar: uni008B
Encoding: 139 139 95
Width: 1200
Flags: HW
LayerCount: 2
Fore
SplineSet
-34 -20 m 0
 -34 -10 -25 -1 -15 -1 c 0
 -5 -1 4 -10 4 -20 c 0
 4 -30 -5 -39 -15 -39 c 0
 -25 -39 -34 -30 -34 -20 c 0
-15 -39 m 0
 -26 -39 -34 -29 -34 -21 c 0
 -34 -16 -32 -11 -30 -9 c 0
 285 411 l 0
 290 418 295 421 300 421 c 0
 305 421 310 418 315 411 c 0
 877 -337 l 0
 886 -350 893 -356 900 -356 c 0
 907 -356 914 -349 923 -338 c 0
 1200 31 l 0
 1204 37 1209 39 1214 39 c 0
 1226 39 1234 31 1234 20 c 0
 1234 16 1233 12 1230 9 c 0
 915 -411 l 0
 910 -418 905 -422 900 -422 c 0
 895 -422 890 -418 885 -411 c 0
 323 337 l 0
 315 348 308 354 300 354 c 0
 293 354 285 349 278 338 c 0
 0 -31 l 0
 -3 -35 -8 -39 -15 -39 c 0
1196 20 m 0
 1196 30 1205 39 1215 39 c 0
 1225 39 1234 30 1234 20 c 0
 1234 10 1225 1 1215 1 c 0
 1205 1 1196 10 1196 20 c 0
EndSplineSet
EndChar

StartChar: uni008C
Encoding: 140 140 96
Width: 1044
Flags: HW
LayerCount: 2
Fore
SplineSet
-13 -39 m 0
 -24 -39 -32 -29 -32 -20 c 0
 -32 -16 -31 -12 -29 -10 c 0
 246 410 l 0
 251 418 256 421 262 421 c 0
 268 421 274 417 278 410 c 0
 755 -323 l 0
 765 -339 773 -347 782 -347 c 0
 790 -347 799 -340 809 -325 c 0
 1041 30 l 0
 1045 37 1051 39 1057 39 c 0
 1068 39 1076 31 1076 20 c 0
 1076 17 1075 13 1073 10 c 0
 798 -410 l 0
 793 -418 788 -421 782 -421 c 0
 776 -421 771 -418 766 -410 c 0
 282 334 l 0
 277 342 270 347 262 347 c 0
 255 347 247 343 240 331 c 0
 3 -30 l 0
 0 -34 -6 -39 -13 -39 c 0
EndSplineSet
EndChar

StartChar: uni008D
Encoding: 141 141 97
Width: 923
Flags: HW
LayerCount: 2
Fore
SplineSet
-33 -20 m 0
 -33 -10 -24 -1 -14 -1 c 0
 -4 -1 5 -10 5 -20 c 0
 5 -30 -4 -39 -14 -39 c 0
 -24 -39 -33 -30 -33 -20 c 0
-14 -39 m 0
 -25 -39 -33 -29 -33 -20 c 0
 -33 -16 -31 -12 -30 -9 c 0
 215 351 l 0
 221 359 226 363 231 363 c 0
 237 363 242 358 247 351 c 0
 655 -254 l 0
 668 -272 679 -283 691 -283 c 0
 702 -283 712 -275 725 -256 c 0
 920 31 l 0
 924 37 930 39 936 39 c 0
 947 39 955 31 955 20 c 0
 955 16 954 13 952 9 c 0
 707 -351 l 0
 701 -359 696 -363 691 -363 c 0
 686 -363 680 -358 675 -351 c 0
 256 269 l 0
 248 281 240 289 232 289 c 0
 223 289 214 282 203 266 c 0
 2 -31 l 0
 -1 -35 -7 -39 -14 -39 c 0
EndSplineSet
EndChar

StartChar: uni008E
Encoding: 142 142 98
Width: 272
Flags: HW
LayerCount: 2
Fore
SplineSet
210 28 m 0
 120 136 22 286 22 489 c 0
 22 708 157 928 157 1308 c 0
 157 1554 100 1795 7 1950 c 0
 2 1958 0 1965 0 1971 c 0
 0 1979 5 1984 11 1984 c 0
 19 1984 29 1978 38 1965 c 0
 83 1902 251 1572 251 1208 c 0
 251 810 115 636 115 386 c 0
 115 213 184 118 265 13 c 0
 269 7 272 3 272 0 c 0
 272 -3 269 -6 265 -12 c 0
 182 -123 115 -211 115 -386 c 0
 115 -636 251 -810 251 -1208 c 0
 251 -1572 83 -1902 38 -1965 c 0
 29 -1978 19 -1984 11 -1984 c 0
 5 -1984 0 -1979 0 -1971 c 0
 0 -1965 2 -1958 7 -1950 c 0
 100 -1795 157 -1554 157 -1308 c 0
 157 -928 22 -708 22 -489 c 0
 22 -286 116 -140 210 -28 c 0
 222 -14 227 -7 227 0 c 0
 227 7 221 14 210 28 c 0
EndSplineSet
EndChar
